<?xml version="1.0" encoding="utf-8"?>
<!-- Generator: Adobe Illustrator 18.0.0, SVG Export Plug-In . SVG Version: 6.00 Build 0)  -->
<!DOCTYPE svg PUBLIC "-//W3C//DTD SVG 1.1//EN" "http://www.w3.org/Graphics/SVG/1.1/DTD/svg11.dtd">
<svg version="1.1" id="Layer_1" xmlns="http://www.w3.org/2000/svg" xmlns:xlink="http://www.w3.org/1999/xlink" x="0px" y="0px"
	 viewBox="0 0 386 386" enable-background="new 0 0 386 386" xml:space="preserve">
<symbol  id="New_Symbol" viewBox="-193 -193 386 386">
	<g>
		<path fill="#00A99D" d="M162.5,52.1c0-10.6-0.7-21.1-2.1-31.4c-2.9-21.9-8.8-43-17.3-62.6c-34.1-79-109.8-135.8-199.5-142.8
			c-66.1,20.1-117.1,74.7-132.2,142.8c-2.7,12.2-4.3,24.9-4.5,37.9c0,1.3-0.1,2.7-0.1,4c0,106.6,86.4,193,193,193
			c62.6,0,118.3-29.8,153.6-76.1C159.4,96.3,162.5,74.5,162.5,52.1z"/>
		<path fill="#007F76" d="M193,0c0-1.4,0-2.8-0.1-4.1c-0.3-13-1.8-25.6-4.5-37.8C169.3-128.3,92.2-193,0-193
			c-19.6,0-38.4,2.9-56.2,8.3c89.7,7,165.4,63.8,199.5,142.8c8.5,19.6,14.4,40.7,17.3,62.6c1.3,10.3,2.1,20.7,2.1,31.4
			c0,22.5-3.1,44.2-9,64.8C178.3,84.4,193,43.9,193,0z"/>
	</g>
	<path fill="#FFFFFF" d="M192.9-5.9c-0.3-13-1.8-27.1-4.5-38.1h-376.9c-2.7,11-4.3,25.2-4.5,38.2l16,12.5L0,141.4L160.5,19.2
		l18.8-14.4L192.9-5.9z"/>
	<g>
		<polygon points="-131.8,-8 -83.1,27.7 -34.3,-8 		"/>
		<polygon points="35.4,-8 84.1,27.7 132.9,-8 		"/>
	</g>
	<polygon display="none" fill="none" points="-193,193 193,193 193,-193 -193,-193 	"/>
</symbol>
<use xlink:href="#New_Symbol"  width="386" height="386" id="XMLID_2_" x="-193" y="-193" transform="matrix(1 0 0 -1 193 193)" overflow="visible"/>
</svg>
